<svg xmlns="http://www.w3.org/2000/svg" xmlns:svg="http://www.w3.org/2000/svg" xmlns:xlink="http://www.w3.org/1999/xlink" id="svg2" width="744.094" height="1052.362" version="1.1" style="enable-background:new"><metadata id="metadata41"/><defs id="defs4"><linearGradient id="linearGradient3731"><stop id="stop3733" offset="0" style="stop-color:#fff;stop-opacity:1"/><stop id="stop3735" offset="1" style="stop-color:#002f5e;stop-opacity:1"/></linearGradient><linearGradient id="linearGradient3642"><stop id="stop3644" offset="0" style="stop-color:#fff;stop-opacity:1"/><stop id="stop3646" offset="1" style="stop-color:#fff;stop-opacity:.66666669"/></linearGradient><linearGradient id="linearGradient3656" x1="267.857" x2="350" y1="265.219" y2="142.362" gradientUnits="userSpaceOnUse" xlink:href="#linearGradient3642"/><filter id="filter3690" color-interpolation-filters="sRGB"><feGaussianBlur id="feGaussianBlur3692" stdDeviation="2.313"/></filter><linearGradient id="linearGradient3721" x1="267.857" x2="350" y1="265.219" y2="142.362" gradientUnits="userSpaceOnUse" xlink:href="#linearGradient3642"/><radialGradient id="radialGradient3769" cx="247.792" cy="222.817" r="130" fx="247.792" fy="222.817" gradientTransform="matrix(1.3246752,-1.1224867e-8,4.7270711e-8,0.65038354,-80.451981,60.56274)" gradientUnits="userSpaceOnUse" xlink:href="#linearGradient3731"/><radialGradient id="radialGradient2852" cx="247.792" cy="222.817" r="130" fx="247.792" fy="222.817" gradientTransform="matrix(1.3246752,-1.1224867e-8,4.7270711e-8,0.65038354,-80.451981,60.56274)" gradientUnits="userSpaceOnUse" xlink:href="#linearGradient3731"/></defs><g id="layer2" style="display:inline"><path id="path3658" d="m 425.71429,474.50504 a 67.85714,49.285713 0 1 1 -135.71428,0 67.85714,49.285713 0 1 1 135.71428,0 z" transform="matrix(1.6210572,0,0,-2.2338745,-271.1069,1229.8469)" style="opacity:.4;fill:#6e6e6e;fill-opacity:1;stroke:none;filter:url(#filter3690)"/><path id="path3628" d="m 420,187.36218 a 130,66.428574 0 1 1 -260,0 130,66.428574 0 1 1 260,0 z" transform="matrix(0.84615385,0,0,-1.6559139,44.615384,472.61783)" style="fill:#002f5e;fill-opacity:1;stroke:none"/><path id="path3638" d="m 350.00001,203.79076 a 82.14286,61.42857 0 1 1 -164.28572,0 82.14286,61.42857 0 1 1 164.28572,0 z" transform="matrix(1.0956521,0,0,-1.4651163,-3.4782483,460.93934)" style="fill:url(#linearGradient3656);fill-opacity:1;stroke:none"/><path id="path3715" d="m 425.71429,474.50504 a 67.85714,49.285713 0 1 1 -135.71428,0 67.85714,49.285713 0 1 1 135.71428,0 z" transform="matrix(1.6210572,0,0,-2.2338745,-271.1069,1579.8469)" style="opacity:.4;fill:#6e6e6e;fill-opacity:1;stroke:none;filter:url(#filter3690)"/><path id="path3717" d="m 420,187.36218 a 130,66.428574 0 1 1 -260,0 130,66.428574 0 1 1 260,0 z" transform="matrix(0.84615385,0,0,-1.6559139,44.615384,822.61783)" style="fill:#002f5e;fill-opacity:1;stroke:none"/><path id="path3719" d="m 350.00001,203.79076 a 82.14286,61.42857 0 1 1 -164.28572,0 82.14286,61.42857 0 1 1 164.28572,0 z" transform="matrix(1.0956521,0,0,-1.4651163,-3.4782483,810.93934)" style="fill:url(#linearGradient3721);fill-opacity:1;stroke:none"/><path id="path3723" d="m 425.71429,474.50504 a 67.85714,49.285713 0 1 1 -135.71428,0 67.85714,49.285713 0 1 1 135.71428,0 z" transform="matrix(0.65309346,0,0,-0.90281701,88.941269,1222.5748)" style="opacity:.4;fill:#6e6e6e;fill-opacity:1;stroke:none;filter:url(#filter3690)"/><path id="path3725" d="m 420,187.36218 a 130,66.428574 0 1 1 -260,0 130,66.428574 0 1 1 260,0 z" transform="matrix(0.34089947,0,0,-0.66923511,216.13984,916.54194)" style="fill:url(#radialGradient2852);fill-opacity:1;stroke:none"/><use id="use3739" width="744.094" height="1052.362" x="0" y="0" transform="matrix(0.41506223,0,0,0.41506223,249.6836,510.62116)" xlink:href="#path3723"/><use id="use3741" width="744.094" height="1052.362" x="0" y="0" transform="matrix(0.41506223,0,0,0.41506223,249.6836,510.62116)" xlink:href="#path3725"/><use id="use3745" width="744.094" height="1052.362" x="0" y="0" transform="matrix(1.25,0,0,1.25,-217.54274,-184.04453)" xlink:href="#use3739"/><use id="use3747" width="744.094" height="1052.362" x="0" y="0" transform="matrix(1.25,0,0,1.25,-217.54274,-184.04453)" xlink:href="#use3741"/><use id="use3749" width="744.094" height="1052.362" x="0" y="0" transform="matrix(0.50000002,0,0,0.50000002,123.20942,302.54307)" xlink:href="#use3745"/><use id="use3751" width="744.094" height="1052.362" x="0" y="0" transform="matrix(0.50000002,0,0,0.50000002,123.20942,302.54307)" xlink:href="#use3747"/><path id="path3753" d="m 425.71429,474.50504 a 67.85714,49.285713 0 1 1 -135.71428,0 67.85714,49.285713 0 1 1 135.71428,0 z" transform="matrix(0.50839605,0,0,-0.70058785,122.01588,834.78872)" style="opacity:.4;fill:#6e6e6e;fill-opacity:1;stroke:none;filter:url(#filter3690)"/><path id="path3755" d="m 420,187.36218 a 130,66.428574 0 1 1 -260,0 130,66.428574 0 1 1 260,0 z" transform="matrix(0.26537082,0,0,-0.51932782,221.03273,597.30649)" style="fill:url(#radialGradient3769);fill-opacity:1;stroke:none"/><use id="use3757" width="744.094" height="1052.362" x="0" y="0" transform="matrix(0.32282617,0,0,0.32282617,247.20952,281.65712)" xlink:href="#path3723"/><use id="use3759" width="744.094" height="1052.362" x="0" y="0" transform="matrix(0.32282617,0,0,0.32282617,247.20952,281.65712)" xlink:href="#path3725"/><use id="use3761" width="744.094" height="1052.362" x="0" y="0" transform="matrix(0.97222217,0,0,0.97222217,-116.36903,-254.71696)" xlink:href="#use3739"/><use id="use3763" width="744.094" height="1052.362" x="0" y="0" transform="matrix(0.97222217,0,0,0.97222217,-116.36903,-254.71696)" xlink:href="#use3741"/><use id="use3765" width="744.094" height="1052.362" x="0" y="0" transform="matrix(0.3888889,0,0,0.3888889,147.65875,125.46653)" xlink:href="#use3745"/><use id="use3767" width="744.094" height="1052.362" x="0" y="0" transform="matrix(0.3888889,0,0,0.3888889,147.65875,125.46653)" xlink:href="#use3747"/></g></svg>