<svg xmlns="http://www.w3.org/2000/svg" xmlns:svg="http://www.w3.org/2000/svg" id="svg2" width="1488.189" height="1052.362" version="1.1"><metadata id="metadata11"/><path style="fill:#002f5e;fill-opacity:1;stroke:none" id="rect3654" d="m 100,692.36224 0,130 0,130 c 19.63495,0 39.26218,-3.38355 57.40251,-9.89566 18.14034,-6.51211 34.7795,-16.14765 48.66351,-28.18046 13.88401,-12.03281 25.00194,-26.45341 32.51591,-42.17503 C 246.0959,856.38946 250,839.3792 250,822.36224 c 0,-17.01696 3.64383,-34.02722 10.65687,-49.74885 7.01304,-15.72162 17.38977,-30.14222 30.34818,-42.17503 12.95841,-12.03281 28.48829,-21.66835 45.41927,-28.18046 16.93098,-6.51211 35.24972,-9.89566 53.57568,-9.89566 l 10,0 -300,0 z"/><rect style="fill:#002f5e;fill-opacity:1;stroke:none" id="rect3775" width="120" height="230" x="250" y="342.362"/><path id="path3777" d="m 661.36347,623.54013 a 93.804832,84.739655 0 0 1 0,169.47931" transform="matrix(-1.5990648,0,0,1.7111233,1307.563,-754.59186)" style="fill:#002f5e;fill-opacity:1"/><rect id="rect3779" width="135" height="30" x="250" y="312.362" style="fill:#002f5e;fill-opacity:1;stroke:none"/><rect style="fill:#002f5e;fill-opacity:1;stroke:none" id="rect3781" width="135" height="30" x="250" y="572.362"/><path style="fill:#002f5e;fill-opacity:1" id="path3783" d="m 661.36347,623.54013 a 93.804832,84.739655 0 0 1 0,169.47931" transform="matrix(0.15990648,0,0,0.17701276,279.24375,461.98762)"/><path id="path3785" d="m 661.36347,623.54013 a 93.804832,84.739655 0 0 1 0,169.47931" transform="matrix(0.15990648,0,0,0.17701276,279.24375,201.98762)" style="fill:#002f5e;fill-opacity:1"/><path style="fill:#002f5e;fill-opacity:1" id="path3787" d="m 661.36347,623.54013 a 93.804832,84.739655 0 0 1 0,169.47931" transform="matrix(-1.2792518,0,0,1.3570978,1866.0504,-153.84275)"/><path style="fill:#fff;fill-opacity:1" id="path3610" d="m 661.36347,623.54013 a 93.804832,84.739655 0 0 1 0,169.47931" transform="matrix(-1.2792508,0,0,1.3570978,1216.0496,-503.84275)"/><path id="path3618" d="m 800,692.36224 0,130 0,130 c -19.63495,0 -39.26218,-3.38355 -57.40251,-9.89566 -18.14034,-6.51211 -34.7795,-16.14765 -48.66351,-28.18046 C 680.04997,902.25331 668.93204,887.83271 661.41807,872.11109 653.9041,856.38946 650,839.3792 650,822.36224 650,805.34528 646.35617,788.33502 639.34313,772.61339 632.33009,756.89177 621.95336,742.47117 608.99495,730.43836 596.03654,718.40555 580.50666,708.77001 563.57568,702.2579 546.6447,695.74579 528.32596,692.36224 510,692.36224 l -10,0 300,0 z" style="fill:#002f5e;fill-opacity:1;stroke:none"/><g id="g3635" transform="translate(0,-0.01281738)"><g id="g3652"><path style="fill:#002f5e;fill-opacity:1;stroke:none" id="rect3620" d="m 650,312.375 c -82.8427,0 -150,64.91871 -150,145 0,80.08127 67.1573,145 150,145 l 135,0 c 8.28427,0 15,-6.71573 15,-15 0,-8.28427 -6.71573,-15 -15,-15 l -15,0 c -66.27411,0 -120,-51.48727 -120,-115 0,-63.51275 53.72589,-115 120,-115 l 15,0 c 8.28427,0 15,-6.71573 15,-15 0,-8.28427 -6.71573,-15 -15,-15 l -135,0 z"/></g></g><g id="g3661" transform="matrix(-1,0,0,1,1700,-0.01281738)"><g id="g3663"><path id="path3665" d="m 650,312.375 c -82.8427,0 -150,64.91871 -150,145 0,80.08127 67.1573,145 150,145 l 135,0 c 8.28427,0 15,-6.71573 15,-15 0,-8.28427 -6.71573,-15 -15,-15 l -15,0 c -66.27411,0 -120,-51.48727 -120,-115 0,-63.51275 53.72589,-115 120,-115 l 15,0 c 8.28427,0 15,-6.71573 15,-15 0,-8.28427 -6.71573,-15 -15,-15 l -135,0 z" style="fill:#002f5e;fill-opacity:1;stroke:none"/></g></g><path id="path3667" d="m 661.36347,623.54013 a 93.804832,84.739655 0 0 1 0,169.47931" transform="matrix(1.2792518,0,0,1.3570978,253.94959,-153.84275)" style="fill:#002f5e;fill-opacity:1"/><path style="fill:#fff;fill-opacity:1" id="path3669" d="m 661.36347,623.54013 a 93.804832,84.739655 0 0 1 0,169.47931" transform="matrix(-1.2792518,0,0,1.3570978,2266.0504,-153.84275)"/><path id="path3671" d="m 661.36347,623.54013 a 93.804832,84.739655 0 0 1 0,169.47931" transform="matrix(1.2792518,0,0,1.3570978,453.94959,-503.84275)" style="fill:#fff;fill-opacity:1"/><path id="path3675" d="m 755.1683,708.27979 a 93.804832,84.739655 0 1 1 -187.60967,0 93.804832,84.739655 0 1 1 187.60967,0 z" transform="matrix(-1.2259496,0,0,1.3570978,1025.7983,-803.84275)" style="fill:#002f5e;fill-opacity:1"/><path style="fill:#fff;fill-opacity:1" id="path3677" d="m 755.1683,708.27979 a 93.804832,84.739655 0 1 1 -187.60967,0 93.804832,84.739655 0 1 1 187.60967,0 z" transform="matrix(-0.90613669,0,0,1.0030723,814.28567,-553.09365)"/><rect style="fill:#002f5e;fill-opacity:1;stroke-width:.60000002;stroke-linecap:round;stroke-linejoin:round;stroke-miterlimit:4;stroke-dasharray:none" id="rect3683" width="110" height="30" x="160" y="142.362" ry="15"/><rect id="rect3685" width="110" height="30" x="102.362" y="-230" ry="15" transform="matrix(0,1,-1,0,0,0)" style="fill:#002f5e;fill-opacity:1;stroke-width:.60000002;stroke-linecap:round;stroke-linejoin:round;stroke-miterlimit:4;stroke-dasharray:none"/><g id="g3697"><path id="path3687" d="M 515 42.375 C 451.48726 42.375 400 93.862254 400 157.375 C 400 220.88775 451.48726 272.375 515 272.375 C 578.51274 272.375 630 220.88775 630 157.375 C 630 93.862254 578.51274 42.375 515 42.375 z M 512.8125 72.375 C 513.54155 72.356529 514.2665 72.375 515 72.375 C 561.9442 72.375 600 110.4308 600 157.375 C 600 204.3192 561.9442 242.375 515 242.375 C 468.0558 242.375 430 204.3192 430 157.375 C 430 111.1643 466.88223 73.538652 512.8125 72.375 z" style="fill:#002f5e;fill-opacity:1"/><path id="rect3691" d="M 515 102.375 C 506.69 102.375 500 109.065 500 117.375 L 500 142.375 L 475 142.375 C 466.69 142.375 460 149.065 460 157.375 C 460 165.685 466.69 172.375 475 172.375 L 500 172.375 L 500 197.375 C 500 205.685 506.69 212.375 515 212.375 C 523.31 212.375 530 205.685 530 197.375 L 530 172.375 L 555 172.375 C 563.31 172.375 570 165.685 570 157.375 C 570 149.065 563.31 142.375 555 142.375 L 530 142.375 L 530 117.375 C 530 109.065 523.31 102.375 515 102.375 z" style="fill:#002f5e;fill-opacity:1;stroke-width:.60000002;stroke-linecap:round;stroke-linejoin:round;stroke-miterlimit:4;stroke-dasharray:none"/></g><g id="g3710"><path id="path3701" d="M 815 42.375 C 751.48726 42.375 700 93.862254 700 157.375 C 700 220.88775 751.48726 272.375 815 272.375 C 878.51274 272.375 930 220.88775 930 157.375 C 930 93.862254 878.51274 42.375 815 42.375 z M 812.8125 72.375 C 813.54155 72.356529 814.2665 72.375 815 72.375 C 861.9442 72.375 900 110.4308 900 157.375 C 900 204.3192 861.9442 242.375 815 242.375 C 768.0558 242.375 730 204.3192 730 157.375 C 730 111.1643 766.88223 73.538652 812.8125 72.375 z" style="fill:#002f5e;fill-opacity:1"/><rect style="fill:#002f5e;fill-opacity:1;stroke-width:.60000002;stroke-linecap:round;stroke-linejoin:round;stroke-miterlimit:4;stroke-dasharray:none" id="rect3705" width="110" height="30" x="760" y="142.362" ry="15"/></g></svg>